<svg xmlns="http://www.w3.org/2000/svg" style="border: 0 !important; clip: rect(0 0 0 0) !important; height: 1px !important; margin: -1px !important; overflow: hidden !important; padding: 0 !important; position: absolute !important; width: 1px !important;" class="root-svg-symbols-element">
    <symbol id="computer" viewBox="0 0 300 300">
      <path d="M221.755 89.414H78.242a2.595 2.595 0 0 0-2.594 2.594v95.963a2.595 2.595 0 0 0 2.594 2.594h143.513a2.595 2.595 0 0 0 2.594-2.594V92.007a2.595 2.595 0 0 0-2.594-2.593z"/><path d="M149.996 0C67.157 0 .001 67.161.001 149.997S67.157 300 149.996 300s150.003-67.163 150.003-150.003S232.835 0 149.996 0zm92.508 187.97c0 11.458-9.29 20.749-20.749 20.749h-47.144v11.588h23.801a7.78 7.78 0 0 1 7.781 7.781 7.78 7.78 0 0 1-7.781 7.781h-96.826a7.78 7.78 0 0 1-7.781-7.781 7.78 7.78 0 0 1 7.781-7.781h23.801v-11.588H78.242c-11.458 0-20.749-9.29-20.749-20.749V92.007c0-11.458 9.29-20.749 20.749-20.749h143.513c11.458 0 20.749 9.29 20.749 20.749v95.963z"/>
    </symbol>
    <symbol id="email" viewBox="0 0 21 21">
      <path fill="currentColor" d="M16.786 5H3.213C2.547 5 2.003 5.545 2 6.213v8.572C2 15.455 2.543 16 3.213 16h13.573c.671 0 1.214-.545 1.214-1.215V6.213A1.218 1.218 0 0 0 16.786 5zm-.179 2.773l.009.012-6.054 4.041-.011-.016a.967.967 0 0 1-.552.19.973.973 0 0 1-.551-.189l-.011.016-6.053-4.042.009-.012A.98.98 0 0 1 3 7a1 1 0 0 1 .999-1c.24 0 .452.096.624.236l.006-.008L10 9.809l5.371-3.58.007.008A.976.976 0 0 1 16.001 6 1 1 0 0 1 17 7a.98.98 0 0 1-.393.773z"/>
    </symbol>
    <symbol id="email2" viewBox="0 0 299.997 299.997">
      <path d="M149.996 0C67.157 0 .001 67.158.001 149.997c0 82.837 67.156 150 149.995 150s150-67.163 150-150C299.996 67.158 232.835 0 149.996 0zm.003 52.686l88.763 55.35H61.236l88.763-55.35zm89.869 143.737h-.009c0 8.878-7.195 16.072-16.072 16.072H76.211c-8.878 0-16.072-7.195-16.072-16.072v-84.865c0-.939.096-1.852.252-2.749l84.808 52.883c.104.065.215.109.322.169.112.062.226.122.34.179a8.903 8.903 0 0 0 1.847.721c.065.018.13.026.195.041a9.148 9.148 0 0 0 2.093.265h.015c.7 0 1.401-.099 2.093-.265.065-.016.13-.023.195-.041a8.99 8.99 0 0 0 1.847-.721 9.19 9.19 0 0 0 .34-.179c.106-.06.218-.104.322-.169l84.808-52.883c.156.897.252 1.808.252 2.749v84.865z"/>
    </symbol>
    <symbol id="fb" viewBox="0 0 16 16">
      <path fill="currentColor" d="M9.5 3H12V0H9.5C7.57 0 6 1.57 6 3.5V5H4v3h2v8h3V8h2.5l.5-3H9V3.5c0-.271.229-.5.5-.5z"/>
    </symbol>
    <symbol id="github" viewBox="0 0 16 16">
      <path fill="currentColor" d="M8 .198a8 8 0 0 0-2.529 15.591c.4.074.547-.174.547-.385 0-.191-.008-.821-.011-1.489-2.226.484-2.695-.944-2.695-.944-.364-.925-.888-1.171-.888-1.171-.726-.497.055-.486.055-.486.803.056 1.226.824 1.226.824.714 1.223 1.872.869 2.328.665.072-.517.279-.87.508-1.07-1.777-.202-3.645-.888-3.645-3.954 0-.873.313-1.587.824-2.147-.083-.202-.357-1.015.077-2.117 0 0 .672-.215 2.201.82A7.672 7.672 0 0 1 8 4.066c.68.003 1.365.092 2.004.269 1.527-1.035 2.198-.82 2.198-.82.435 1.102.162 1.916.079 2.117.513.56.823 1.274.823 2.147 0 3.073-1.872 3.749-3.653 3.947.287.248.543.735.543 1.481 0 1.07-.009 1.932-.009 2.195 0 .213.144.462.55.384A8 8 0 0 0 8.001.196z"/>
    </symbol>
    <symbol id="internet" viewBox="0 0 300 300">
      <path d="M202.105 96.266a75.322 75.322 0 0 0-19.011-13.437c3.395 5.159 6.383 11.129 8.867 17.787a88.443 88.443 0 0 0 10.144-4.35zm-89.502 48.547h32.207v-27.29c-9.625-.418-18.931-1.774-27.601-3.989-2.596 9.482-4.222 20.1-4.606 31.279zm3.976 39.14c8.862-2.324 18.394-3.758 28.231-4.194v-24.572h-32.205c.359 10.203 1.754 19.934 3.974 28.766zm3.833-80.287c7.648 1.904 15.87 3.079 24.398 3.47V75.3a74.434 74.434 0 0 0-4.464.444c-7.972 4.834-14.954 14.811-19.934 27.922zm-23.49 99.124a75.24 75.24 0 0 0 23.456 15.989c-4.272-6.095-7.939-13.456-10.841-21.799-4.528 1.67-8.755 3.613-12.615 5.81zm23.366-121.53a75.133 75.133 0 0 0-21.586 14.239c3.613 1.937 7.521 3.639 11.656 5.125 2.74-7.348 6.094-13.863 9.93-19.364zm-13.093 29.219c-5.638-2.002-10.906-4.396-15.707-7.158-9.231 11.547-15.113 25.866-16.189 41.492h26.914c.381-12.359 2.13-23.952 4.982-34.334zm-4.979 44.708H75.3a74.485 74.485 0 0 0 14.721 39.627c4.995-3.001 10.551-5.61 16.542-7.773-2.469-9.736-3.989-20.468-4.347-31.854zm38.32 69.096c1.413.176 2.837.319 4.274.418v-34.554c-8.831.415-17.359 1.681-25.262 3.719 5.056 14.383 12.46 25.341 20.988 30.417zM195.766 187c5.335 1.932 10.338 4.212 14.913 6.837 7.98-11.018 13.033-24.279 14.021-38.647h-24.595c-.357 11.367-1.872 22.087-4.339 31.81zm-12.755 30.213a75.286 75.286 0 0 0 20.858-15.25c-3.439-1.849-7.156-3.507-11.095-4.954-2.659 7.627-5.953 14.436-9.763 20.204z"/><path d="M149.997 0C67.158 0 .003 67.161.003 149.997S67.158 300 149.997 300s150-67.163 150-150.003S232.837 0 149.997 0zM150 240.462c-49.88 0-90.462-40.579-90.462-90.462S100.12 59.538 150 59.538s90.462 40.579 90.462 90.462S199.88 240.462 150 240.462z"/><path d="M162.719 76.202a75.332 75.332 0 0 0-7.534-.903v31.937c9.334-.275 18.352-1.512 26.711-3.597-4.822-12.687-11.521-22.444-19.177-27.437zm32.402 34.269c2.856 10.382 4.604 21.981 4.985 34.342h24.592c-1.045-15.227-6.658-29.209-15.484-40.595-4.36 2.378-9.075 4.474-14.093 6.253zM155.185 224.7a75.032 75.032 0 0 0 7.368-.871c8.201-5.262 15.307-16.002 20.212-29.948-8.613-2.223-17.955-3.543-27.58-3.833V224.7zm29.917-111.192c-9.384 2.402-19.493 3.813-29.917 4.103v27.202h34.534c-.387-11.186-2.016-21.815-4.617-31.305zm4.614 41.679h-34.531v24.486c10.732.288 21.052 1.722 30.573 4.207 2.212-8.81 3.6-18.516 3.958-28.693z"/>
    </symbol>
    <symbol id="linkedin" viewBox="0 0 430.117 430.117">
      <path fill="currentColor" d="M430.117 261.543V420.56h-92.188V272.193c0-37.271-13.334-62.707-46.703-62.707-25.473 0-40.632 17.142-47.301 33.724-2.432 5.928-3.058 14.179-3.058 22.477V420.56h-92.219s1.242-251.285 0-277.32h92.21v39.309c-.187.294-.43.611-.606.896h.606v-.896c12.251-18.869 34.13-45.824 83.102-45.824 60.673-.001 106.157 39.636 106.157 124.818zM52.183 9.558C20.635 9.558 0 30.251 0 57.463c0 26.619 20.038 47.94 50.959 47.94h.616c32.159 0 52.159-21.317 52.159-47.94-.606-27.212-20-47.905-51.551-47.905zM5.477 420.56h92.184V143.24H5.477v277.32z"/>
    </symbol>
    <symbol id="phone" viewBox="0 0 16 16">
      <path fill="currentColor" d="M11 10c-1 1-1 2-2 2s-2-1-3-2-2-2-2-3 1-1 2-2-2-4-3-4-3 3-3 3c0 2 2.055 6.055 4 8s6 4 8 4c0 0 3-2 3-3s-3-4-4-3z"/>
    </symbol>
    <symbol id="skype" viewBox="0 0 16 16">
      <path fill="currentColor" d="M6.65.584C6.625.568 6.597.556 6.572.543c-.028.006-.053.009-.081.016l.159.025zM.575 6.578c-.006.028-.009.056-.012.081.016.025.025.05.041.075l-.028-.156zm14.844 2.838c.006-.028.009-.056.016-.084-.016-.025-.025-.05-.041-.075l.025.159zM9.25 15.359c.025.016.053.028.078.041.028-.006.056-.009.084-.012l-.162-.028z"/><path fill="currentColor" d="M15.434 9.331c-.006.028-.009.056-.016.084l-.028-.162c.016.028.028.053.044.078.081-.45.125-.909.125-1.369a7.54 7.54 0 0 0-2.213-5.344 7.56 7.56 0 0 0-2.4-1.619A7.51 7.51 0 0 0 8.005.405c-.481 0-.963.044-1.431.134h-.003c.025.012.053.025.078.041L6.49.555c.028-.006.053-.009.081-.016A4.492 4.492 0 0 0 4.474.014C3.28.014 2.155.48 1.311 1.323S.002 3.292.002 4.486c0 .759.197 1.509.563 2.169.006-.028.009-.056.012-.081l.028.159c-.016-.025-.028-.05-.041-.075a7.566 7.566 0 0 0-.112 1.303 7.514 7.514 0 0 0 2.213 5.341 7.54 7.54 0 0 0 6.666 2.094.64.64 0 0 0-.078-.041l.162.028c-.028.006-.056.009-.084.012a4.479 4.479 0 0 0 2.2.581c1.194 0 2.319-.466 3.162-1.309s1.309-1.969 1.309-3.162a4.532 4.532 0 0 0-.569-2.175zm-7.4 3.26c-2.684 0-3.884-1.319-3.884-2.309 0-.506.375-.863.891-.863 1.15 0 .85 1.65 2.994 1.65 1.097 0 1.703-.597 1.703-1.206 0-.366-.181-.772-.903-.95l-2.388-.597c-1.922-.481-2.272-1.522-2.272-2.5 0-2.028 1.909-2.791 3.703-2.791 1.653 0 3.6.913 3.6 2.131 0 .522-.453.825-.969.825-.981 0-.8-1.356-2.775-1.356-.981 0-1.522.444-1.522 1.078s.775.838 1.447.991l1.769.394c1.934.431 2.425 1.563 2.425 2.625 0 1.647-1.266 2.878-3.819 2.878z"/>
    </symbol>
    <symbol id="smartphone" viewBox="0 0 300 300">
      <circle cx="150.001" cy="226.085" r="11.718"/><path d="M182.691 68.248h-65.382c-3.665 0-6.647 2.843-6.647 6.331v123.592c0 3.491 2.98 6.331 6.647 6.331h65.382c3.665 0 6.647-2.843 6.647-6.331V74.579c-.002-3.491-2.982-6.331-6.647-6.331z"/><path d="M149.996 0C67.157 0 .001 67.161.001 149.997S67.157 300 149.996 300s150.003-67.163 150.003-150.003S232.835 0 149.996 0zm58.358 224.021c0 11.458-9.29 20.749-20.749 20.749h-75.214c-11.458 0-20.749-9.29-20.749-20.749V75.323c0-11.458 9.29-20.749 20.749-20.749h75.214c11.458 0 20.749 9.29 20.749 20.749v148.698z"/>
    </symbol>
    <symbol id="tablet" viewBox="0 0 300 300">
      <path d="M137.031 218.953h25.936v15.562h-25.936zm56.032-145.518h-86.128c-3.665 0-6.647 2.843-6.647 6.331v123.592c0 3.491 2.98 6.331 6.647 6.331h86.13c3.665 0 6.647-2.843 6.647-6.331V79.766c-.002-3.491-2.982-6.331-6.649-6.331z"/><path d="M149.996 0C67.157 0 .001 67.161.001 149.997S67.157 300 149.996 300s150.003-67.163 150.003-150.003S232.835 0 149.996 0zm68.733 221.427c0 11.458-9.29 20.749-20.749 20.749h-95.963c-11.458 0-20.749-9.29-20.749-20.749V77.916c0-11.458 9.29-20.749 20.749-20.749h95.963c11.458 0 20.749 9.29 20.749 20.749v143.511z"/>
    </symbol>
    <symbol id="tw" viewBox="0 0 16 16">
      <path fill="currentColor" d="M16 3.538a6.461 6.461 0 0 1-1.884.516 3.301 3.301 0 0 0 1.444-1.816 6.607 6.607 0 0 1-2.084.797 3.28 3.28 0 0 0-2.397-1.034 3.28 3.28 0 0 0-3.197 4.028 9.321 9.321 0 0 1-6.766-3.431 3.284 3.284 0 0 0 1.015 4.381A3.301 3.301 0 0 1 .643 6.57v.041A3.283 3.283 0 0 0 3.277 9.83a3.291 3.291 0 0 1-1.485.057 3.293 3.293 0 0 0 3.066 2.281 6.586 6.586 0 0 1-4.862 1.359 9.286 9.286 0 0 0 5.034 1.475c6.037 0 9.341-5.003 9.341-9.341 0-.144-.003-.284-.009-.425a6.59 6.59 0 0 0 1.637-1.697z"/>
    </symbol>
    <symbol id="vk" viewBox="0 0 548.358 548.358">
      <path fill="currentColor" d="M545.451 400.298c-.664-1.431-1.283-2.618-1.858-3.569-9.514-17.135-27.695-38.167-54.532-63.102l-.567-.571-.284-.28-.287-.287h-.288c-12.18-11.611-19.893-19.418-23.123-23.415-5.91-7.614-7.234-15.321-4.004-23.13 2.282-5.9 10.854-18.36 25.696-37.397 7.807-10.089 13.99-18.175 18.556-24.267 32.931-43.78 47.208-71.756 42.828-83.939l-1.701-2.847c-1.143-1.714-4.093-3.282-8.846-4.712-4.764-1.427-10.853-1.663-18.278-.712l-82.224.568c-1.332-.472-3.234-.428-5.712.144l-3.713.859-1.431.715-1.136.859c-.952.568-1.999 1.567-3.142 2.995-1.137 1.423-2.088 3.093-2.848 4.996-8.952 23.031-19.13 44.444-30.553 64.238-7.043 11.803-13.511 22.032-19.418 30.693-5.899 8.658-10.848 15.037-14.842 19.126-4 4.093-7.61 7.372-10.852 9.849-3.237 2.478-5.708 3.525-7.419 3.142-1.715-.383-3.33-.763-4.859-1.143-2.663-1.714-4.805-4.045-6.42-6.995-1.622-2.95-2.714-6.663-3.285-11.136-.568-4.476-.904-8.326-1-11.563-.089-3.233-.048-7.806.145-13.706.198-5.903.287-9.897.287-11.991 0-7.234.141-15.085.424-23.555.288-8.47.521-15.181.716-20.125.194-4.949.284-10.185.284-15.705s-.336-9.849-1-12.991a44.442 44.442 0 0 0-2.99-9.137c-1.335-2.95-3.289-5.232-5.853-6.852-2.569-1.618-5.763-2.902-9.564-3.856-10.089-2.283-22.936-3.518-38.547-3.71-35.401-.38-58.148 1.906-68.236 6.855-3.997 2.091-7.614 4.948-10.848 8.562-3.427 4.189-3.905 6.475-1.431 6.851 11.422 1.711 19.508 5.804 24.267 12.275l1.715 3.429c1.334 2.474 2.666 6.854 3.999 13.134 1.331 6.28 2.19 13.227 2.568 20.837.95 13.897.95 25.793 0 35.689-.953 9.9-1.853 17.607-2.712 23.127-.859 5.52-2.143 9.993-3.855 13.418-1.715 3.426-2.856 5.52-3.428 6.28-.571.76-1.047 1.239-1.425 1.427a21.387 21.387 0 0 1-7.71 1.431c-2.667 0-5.901-1.334-9.707-4-3.805-2.666-7.754-6.328-11.847-10.992-4.093-4.665-8.709-11.184-13.85-19.558-5.137-8.374-10.467-18.271-15.987-29.691l-4.567-8.282c-2.855-5.328-6.755-13.086-11.704-23.267-4.952-10.185-9.329-20.037-13.134-29.554-1.521-3.997-3.806-7.04-6.851-9.134l-1.429-.859c-.95-.76-2.475-1.567-4.567-2.427a30.301 30.301 0 0 0-6.567-1.854l-78.229.568c-7.994 0-13.418 1.811-16.274 5.428l-1.143 1.711c-.571.953-.859 2.475-.859 4.57 0 2.094.571 4.664 1.714 7.707 11.42 26.84 23.839 52.725 37.257 77.659 13.418 24.934 25.078 45.019 34.973 60.237 9.897 15.229 19.985 29.602 30.264 43.112 10.279 13.515 17.083 22.176 20.412 25.981 3.333 3.812 5.951 6.662 7.854 8.565l7.139 6.851c4.568 4.569 11.276 10.041 20.127 16.416 8.853 6.379 18.654 12.659 29.408 18.85 10.756 6.181 23.269 11.225 37.546 15.126 14.275 3.905 28.169 5.472 41.684 4.716h32.834c6.659-.575 11.704-2.669 15.133-6.283l1.136-1.431c.764-1.136 1.479-2.901 2.139-5.276.668-2.379 1-5 1-7.851-.195-8.183.428-15.558 1.852-22.124 1.423-6.564 3.045-11.513 4.859-14.846 1.813-3.33 3.859-6.14 6.136-8.418 2.282-2.283 3.908-3.666 4.862-4.142.948-.479 1.705-.804 2.276-.999 4.568-1.522 9.944-.048 16.136 4.429 6.187 4.473 11.99 9.996 17.418 16.56 5.425 6.57 11.943 13.941 19.555 22.124 7.617 8.186 14.277 14.271 19.985 18.274l5.708 3.426c3.812 2.286 8.761 4.38 14.853 6.283 6.081 1.902 11.409 2.378 15.984 1.427l73.087-1.14c7.229 0 12.854-1.197 16.844-3.572 3.998-2.379 6.373-5 7.139-7.851.764-2.854.805-6.092.145-9.712-.677-3.611-1.344-6.136-2.008-7.563z"/>
    </symbol></svg>