<svg xmlns="http://www.w3.org/2000/svg" width="21" height="21" viewBox="0 0 21 21" overflow="visible"><path fill="currentColor" d="M16.786 5H3.213C2.547 5 2.003 5.545 2 6.213v8.572C2 15.455 2.543 16 3.213 16h13.573c.671 0 1.214-.545 1.214-1.215V6.213A1.218 1.218 0 0 0 16.786 5zm-.179 2.773l.009.012-6.054 4.041-.011-.016a.967.967 0 0 1-.552.19.973.973 0 0 1-.551-.189l-.011.016-6.053-4.042.009-.012A.98.98 0 0 1 3 7a1 1 0 0 1 .999-1c.24 0 .452.096.624.236l.006-.008L10 9.809l5.371-3.58.007.008A.976.976 0 0 1 16.001 6 1 1 0 0 1 17 7a.98.98 0 0 1-.393.773z"/></svg>